<svg width="47" height="47" viewBox="0 0 47 47" fill="none" xmlns="http://www.w3.org/2000/svg">
<path d="M11.2108 20.6303L12.6977 32.5257C12.8228 33.5265 13.6736 34.2776 14.6822 34.2776H30.3178C31.3264 34.2776 32.1772 33.5265 32.3023 32.5257L33.7892 20.6303C33.9012 19.735 33.2031 18.9443 32.3008 18.9443H12.6992C11.7969 18.9443 11.0988 19.735 11.2108 20.6303Z" stroke="#CB2031" stroke-width="2"/>
<path d="M14.8335 18.9444L20.9816 11.7716C21.7798 10.8404 23.2205 10.8404 24.0187 11.7716L30.1668 18.9444H14.8335Z" stroke="#CB2031" stroke-width="2" stroke-linecap="round"/>
<path d="M16.75 23.4164V29.8053" stroke="#CB2031" stroke-width="2" stroke-linecap="round"/>
<path d="M22.5 23.4164V29.8053" stroke="#CB2031" stroke-width="2" stroke-linecap="round"/>
<path d="M28.25 23.4164V29.8053" stroke="#CB2031" stroke-width="2" stroke-linecap="round"/>
<circle cx="22.5" cy="22.5" r="21.5" stroke="#CB2031" stroke-width="2"/>
<circle cx="36.5" cy="36.5" r="10.5" fill="#CB2031"/>
<path d="M39.306 39.656V41H34.326V39.656H36.006V35.246C36.006 35.134 36.008 35.022 36.012 34.91C36.016 34.794 36.022 34.678 36.03 34.562L35.034 35.39C34.946 35.458 34.858 35.5 34.77 35.516C34.686 35.528 34.606 35.528 34.53 35.516C34.454 35.5 34.386 35.474 34.326 35.438C34.266 35.398 34.222 35.358 34.194 35.318L33.606 34.538L36.33 32.252H37.866V39.656H39.306Z" fill="white"/>
</svg>
