<svg width="14" height="14" viewBox="0 0 14 14" fill="none" xmlns="http://www.w3.org/2000/svg">
<path d="M12.25 5.375C12.25 2.95875 10.0114 1 7.25 1C4.48858 1 2.25 2.95875 2.25 5.375" stroke="#CB2031"/>
<path d="M11 5.375H10.875C10.5989 5.375 10.375 5.59886 10.375 5.875V9.875C10.375 10.1511 10.5989 10.375 10.875 10.375H11C12.3807 10.375 13.5 9.25571 13.5 7.875C13.5 6.49429 12.3807 5.375 11 5.375Z" stroke="#CB2031"/>
<path d="M12.25 10.375V10.375C12.25 11.4105 11.4105 12.25 10.375 12.25H9.125" stroke="#CB2031"/>
<path d="M6.625 11H7.875C8.56536 11 9.125 11.5596 9.125 12.25C9.125 12.9404 8.56536 13.5 7.875 13.5H6.625C5.93464 13.5 5.375 12.9404 5.375 12.25C5.375 11.5596 5.93464 11 6.625 11Z" stroke="#CB2031"/>
<path d="M3.625 5.375H3.5C2.11929 5.375 1 6.49429 1 7.875C1 9.25571 2.11929 10.375 3.5 10.375H3.625C3.90114 10.375 4.125 10.1511 4.125 9.875V5.875C4.125 5.59886 3.90114 5.375 3.625 5.375Z" stroke="#CB2031"/>
</svg>
