<svg width="30" height="29" viewBox="0 0 30 29" fill="none" xmlns="http://www.w3.org/2000/svg">
<path d="M13.1616 25.6753L13.1609 25.6746C9.28831 22.163 6.11442 19.2844 3.90265 16.5803C1.69662 13.8832 0.5 11.4208 0.5 8.75C0.5 4.40614 3.90614 1 8.25 1C10.7086 1 13.0761 2.14697 14.6193 3.95917L15 4.4062L15.3807 3.95917C16.9239 2.14697 19.2914 1 21.75 1C26.0939 1 29.5 4.40614 29.5 8.75C29.5 11.4208 28.3034 13.8833 26.0972 16.5823C23.8916 19.2808 20.7293 22.1545 16.8715 25.6602L16.8398 25.689L16.8387 25.69L15.0013 27.35L13.1616 25.6753Z" stroke="black"/>
</svg>
