<svg width="26" height="26" viewBox="0 0 26 26" fill="none" xmlns="http://www.w3.org/2000/svg">
<path d="M25.1667 2.77745V23.3902C25.1667 23.8615 24.9795 24.3135 24.6462 24.6467C24.313 24.9799 23.861 25.1672 23.3897 25.1672H2.77696C2.30568 25.1672 1.8537 24.9799 1.52046 24.6467C1.18721 24.3135 1 23.8615 1 23.3902V2.77745C1 2.30617 1.18721 1.85419 1.52046 1.52095C1.8537 1.1877 2.30568 1.00049 2.77696 1.00049L23.3897 1.00049C23.861 1.00049 24.313 1.1877 24.6462 1.52095C24.9795 1.85419 25.1667 2.30617 25.1667 2.77745ZM8.10784 10.2407H4.55392V21.6132H8.10784V10.2407ZM8.4277 6.33137C8.42957 6.06255 8.37847 5.79598 8.27733 5.54691C8.17618 5.29783 8.02696 5.07111 7.83819 4.8797C7.64942 4.6883 7.4248 4.53594 7.17715 4.43135C6.9295 4.32675 6.66368 4.27196 6.39485 4.2701H6.33088C5.7842 4.2701 5.2599 4.48727 4.87334 4.87383C4.48678 5.26039 4.26961 5.78469 4.26961 6.33137C4.26961 6.87805 4.48678 7.40235 4.87334 7.78891C5.2599 8.17548 5.7842 8.39264 6.33088 8.39264C6.59973 8.39926 6.86724 8.35284 7.11813 8.25603C7.36903 8.15922 7.59839 8.01392 7.79312 7.82844C7.98784 7.64296 8.14411 7.42092 8.25299 7.17503C8.36187 6.92913 8.42124 6.66419 8.4277 6.39534V6.33137ZM21.6127 14.7044C21.6127 11.2855 19.4377 9.95637 17.277 9.95637C16.5695 9.92095 15.8651 10.0716 15.234 10.3934C14.6029 10.7152 14.0672 11.1968 13.6804 11.7902H13.5809V10.2407H10.2402V21.6132H13.7941V15.5645C13.7427 14.945 13.9379 14.3302 14.3371 13.8538C14.7364 13.3773 15.3075 13.0776 15.9265 13.0199H16.0615C17.1917 13.0199 18.0304 13.7306 18.0304 15.5218V21.6132H21.5843L21.6127 14.7044Z" stroke="#CB2031" stroke-width="1.5" stroke-linejoin="round"/>
</svg>
