<svg width="29" height="29" viewBox="0 0 29 29" fill="none" xmlns="http://www.w3.org/2000/svg">
<path d="M3.69949 8.7539C3.756 7.51899 3.94937 6.72254 4.21086 6.04648L4.21438 6.03714C4.47351 5.34919 4.87944 4.72597 5.40393 4.21087L5.41129 4.20364L5.41852 4.19628C5.93405 3.67112 6.55749 3.26558 7.24484 3.00714L7.25669 3.0026C7.93121 2.74029 8.7261 2.54765 9.96204 2.49115M3.69949 8.7539C3.64008 10.0733 3.62494 10.4823 3.62494 13.9034C3.62494 17.3252 3.63925 17.7332 3.69946 19.053M3.69949 8.7539L3.69949 9.08673M4.21545 21.7702C4.4739 22.4575 4.87943 23.081 5.40459 23.5965L5.41194 23.6037L5.41916 23.6111C5.93429 24.1356 6.55753 24.5415 7.24549 24.8007L7.25575 24.8045C7.93088 25.0664 8.72616 25.2591 9.96204 25.3156M4.21545 21.7702L4.21092 21.7583C3.94861 21.0838 3.75596 20.2889 3.69946 19.053M4.21545 21.7702L4.19996 21.6886M3.69946 19.053L3.7197 19.1596M3.69946 19.053L3.69946 18.7193M4.19996 21.6886L3.7197 19.1596M4.19996 21.6886C3.99599 21.1497 3.78595 20.3979 3.7197 19.1596M4.19996 21.6886C4.20711 21.7075 4.21426 21.7261 4.22139 21.7445C4.48007 22.4419 4.88993 23.0733 5.42151 23.5934C5.94145 24.1249 6.57263 24.5347 7.26974 24.7934C7.82918 25.0113 8.61748 25.239 9.96185 25.3006C11.3186 25.3624 11.7377 25.375 15.1117 25.375C18.4856 25.375 18.9052 25.3623 20.2619 25.3006C21.6079 25.2389 22.3953 25.0099 22.9527 24.7937C23.6502 24.5352 24.2818 24.1252 24.8019 23.5934C25.3333 23.0735 25.743 22.4423 26.0017 21.7453C26.2196 21.1858 26.4473 20.3975 26.5089 19.0532C26.5707 17.6965 26.5833 17.2765 26.5833 13.9034C26.5833 10.5302 26.5707 10.1099 26.5089 8.75318C26.4469 7.40011 26.2158 6.61158 25.9986 6.05361C25.7146 5.32052 25.3545 4.76608 24.801 4.21254C24.2486 3.6612 23.6956 3.30087 22.962 3.01662C22.402 2.79769 21.6129 2.56804 20.2619 2.50612C20.1444 2.50077 20.0339 2.49579 19.9279 2.49116M3.7197 19.1596C3.71783 19.1246 3.71607 19.0893 3.71443 19.0535C3.70908 18.9359 3.7041 18.8254 3.69946 18.7193M9.96204 2.49115C11.2818 2.43093 11.6907 2.41663 15.1117 2.41663C18.5327 2.41663 18.9413 2.43175 20.2608 2.49116M9.96204 2.49115L10.2957 2.49115M20.2608 2.49116L19.9279 2.49116M20.2608 2.49116C21.4959 2.54765 22.2924 2.74099 22.9686 3.00251L22.9779 3.00607C23.6658 3.26519 24.2891 3.67113 24.8042 4.19562L24.8113 4.2029L24.8186 4.21006C25.3432 4.72521 25.7491 5.3486 26.008 6.03674L26.0124 6.04838C26.2747 6.72289 26.4674 7.51779 26.5239 8.75373M10.2957 2.49115L19.9279 2.49116M10.2957 2.49115C11.4133 2.44228 12.0309 2.43177 15.1117 2.43177C18.1927 2.43177 18.8102 2.44228 19.9279 2.49116M10.2957 2.49115C10.1897 2.49579 10.0791 2.50077 9.9615 2.50612C8.61544 2.56781 7.82808 2.79681 7.27062 3.01303C6.57049 3.27257 5.93686 3.6846 5.41563 4.2193C4.86726 4.76993 4.50832 5.32172 4.22497 6.05298C4.00603 6.61293 3.77634 7.40238 3.71442 8.75354C3.70908 8.87076 3.70411 8.98098 3.69949 9.08673M26.5239 19.053C26.4674 20.2889 26.2747 21.0842 26.0129 21.7593L26.009 21.7696C25.7498 22.4575 25.3439 23.0807 24.8194 23.5959L24.8121 23.6031L24.8048 23.6104C24.2893 24.1356 23.6659 24.5411 22.9785 24.7996L22.9667 24.8041C22.2921 25.0664 21.4972 25.2591 20.2613 25.3156M3.69946 18.7193C3.6506 17.6018 3.64008 16.9841 3.64008 13.9034C3.64008 10.8217 3.65059 10.2049 3.69949 9.08673M3.69946 18.7193L3.69949 9.08673M13.0687 18.8356C13.7164 19.1039 14.4106 19.242 15.1117 19.242C16.5276 19.242 17.8855 18.6795 18.8866 17.6783C19.8878 16.6771 20.4503 15.3192 20.4503 13.9034C20.4503 12.4875 19.8878 11.1296 18.8866 10.1284C17.8855 9.12721 16.5276 8.56475 15.1117 8.56475C14.4106 8.56475 13.7164 8.70284 13.0687 8.97113C12.421 9.23942 11.8325 9.63266 11.3367 10.1284C10.841 10.6241 10.4477 11.2127 10.1795 11.8604C9.91116 12.5081 9.77307 13.2023 9.77307 13.9034C9.77307 14.6044 9.91116 15.2986 10.1795 15.9464C10.4477 16.5941 10.841 17.1826 11.3367 17.6783C11.8325 18.1741 12.421 18.5673 13.0687 18.8356ZM11.3248 10.1165C12.3292 9.11216 13.6913 8.54793 15.1117 8.54793C16.532 8.54793 17.8942 9.11216 18.8985 10.1165C19.9029 11.1208 20.4671 12.483 20.4671 13.9034C20.4671 15.3237 19.9029 16.6859 18.8985 17.6902C17.8942 18.6946 16.532 19.2588 15.1117 19.2588C13.6913 19.2588 12.3292 18.6946 11.3248 17.6902C10.3205 16.6859 9.75625 15.3237 9.75625 13.9034C9.75625 12.483 10.3205 11.1208 11.3248 10.1165ZM23.4827 7.30106C23.4827 7.70759 23.3212 8.09748 23.0338 8.38494C22.7463 8.6724 22.3564 8.83389 21.9499 8.83389C21.5434 8.83389 21.1535 8.6724 20.866 8.38494C20.5786 8.09748 20.4171 7.70759 20.4171 7.30106C20.4171 6.89453 20.5786 6.50465 20.866 6.21719C21.1535 5.92973 21.5434 5.76824 21.9499 5.76824C22.3564 5.76824 22.7463 5.92973 23.0338 6.21719C23.3212 6.50465 23.4827 6.89453 23.4827 7.30106Z" stroke="#CB2031" stroke-width="1.5" stroke-linejoin="round"/>
</svg>
