<svg width="85" height="65" viewBox="0 0 85 65" fill="none" xmlns="http://www.w3.org/2000/svg">
<path d="M39.684 0V19.1761C39.684 24.6212 38.6186 30.1847 36.4879 35.8665C34.4164 41.4891 31.6347 46.8158 28.1428 51.8466C24.6508 56.8182 20.8333 61.0499 16.6903 64.5419L0 54.6875C2.95928 50.0118 5.56345 44.8331 7.8125 39.1513C10.1207 33.4695 11.2749 26.8703 11.2749 19.3537V0H39.684ZM84.3395 0V19.1761C84.3395 24.6212 83.2742 30.1847 81.1435 35.8665C79.072 41.4891 76.2903 46.8158 72.7983 51.8466C69.3064 56.8182 65.4593 61.0499 61.2571 64.5419L44.5668 54.6875C47.5852 50.0118 50.219 44.8331 52.468 39.1513C54.7763 33.4695 55.9304 26.8703 55.9304 19.3537V0H84.3395Z" fill="#252525"/>
</svg>
