<svg width="45" height="45" viewBox="0 0 45 45" fill="none" xmlns="http://www.w3.org/2000/svg">
<path d="M23 17.4272L24.4235 15.9988C26.7907 13.6234 30.4608 13.5511 32.9085 15.8317V15.8317C35.6631 18.3983 35.8061 22.9162 33.22 25.6752L30.333 28.7551L24.2675 34.3767C23.54 35.0509 22.4584 35.0511 21.7308 34.3771L19.5382 32.3463" stroke="#CB2031" stroke-width="2" stroke-linecap="round"/>
<path d="M22.9994 17.4269L21.5764 15.9988C19.2093 13.6232 15.5391 13.5509 13.0914 15.8315V15.8315C10.3368 18.398 10.1938 22.9158 12.7799 25.6747L15.6669 28.7547L21.7315 34.3764C22.4588 35.0506 23.5403 35.0509 24.268 34.3771L26.4616 32.3459" stroke="#CB2031" stroke-width="2" stroke-linecap="round"/>
<circle cx="22.5" cy="22.5" r="21.5" stroke="#CB2031" stroke-width="2"/>
</svg>
