<svg width="25" height="25" viewBox="0 0 25 25" fill="none" xmlns="http://www.w3.org/2000/svg">
<path d="M22.3458 10.6164C22.4485 11.2414 22.5085 11.8835 22.5085 12.5599C22.5085 15.6849 21.3954 18.322 19.4605 20.1114C17.7653 21.6782 15.445 22.6028 12.671 22.6028C8.65559 22.6028 5.18809 20.2912 3.50143 16.935C2.79937 15.548 2.39697 13.9897 2.39697 12.3288C2.39697 10.6678 2.79937 9.10955 3.50143 7.72255C5.18809 4.36635 8.65559 2.05469 12.671 2.05469C15.445 2.05469 17.7653 3.07353 19.5375 4.73451L16.6094 7.66262C15.5392 6.64377 14.1865 6.1215 12.671 6.1215C9.99122 6.1215 7.72236 7.92803 6.909 10.3681C6.70352 10.9846 6.58365 11.6438 6.58365 12.3288C6.58365 13.0137 6.69496 13.6729 6.909 14.2894C7.72236 16.7295 9.99122 18.536 12.671 18.536C14.058 18.536 15.231 18.1593 16.1557 17.5428C17.2344 16.8151 17.9622 15.7449 18.2105 14.4777H12.671V10.6164H22.3458Z" stroke="#F9F9F9" stroke-width="1.5" stroke-linejoin="round"/>
</svg>
