<svg width="25" height="26" viewBox="0 0 25 26" fill="none" xmlns="http://www.w3.org/2000/svg">
<path d="M3.35953 8.29365C3.40758 7.24365 3.57199 6.56645 3.79433 5.99162L3.79732 5.98368C4.01765 5.39874 4.36281 4.86884 4.80876 4.43086L4.81502 4.42471L4.82116 4.41845C5.25951 3.97193 5.78959 3.62711 6.37402 3.40737L6.38411 3.40351C6.95762 3.18048 7.6335 3.01668 8.68437 2.96864M3.35953 8.29365C3.30902 9.41553 3.29614 9.76329 3.29614 12.6721C3.29614 15.5816 3.30831 15.9285 3.35951 17.0506M3.35953 8.29365L3.35953 8.57664M3.79824 19.361C4.01798 19.9454 4.3628 20.4755 4.80932 20.9138L4.81557 20.92L4.82171 20.9262C5.25971 21.3722 5.78963 21.7173 6.37458 21.9377L6.38331 21.941C6.95735 22.1636 7.63355 22.3275 8.68437 22.3755M3.79824 19.361L3.79438 19.3509C3.57135 18.7774 3.40755 18.1015 3.35951 17.0506M3.79824 19.361L3.78506 19.2916M3.35951 17.0506L3.37671 17.1412M3.35951 17.0506L3.35951 16.7669M3.78506 19.2916L3.37671 17.1412M3.78506 19.2916C3.61163 18.8334 3.43305 18.1942 3.37671 17.1412M3.78506 19.2916C3.79115 19.3077 3.79722 19.3235 3.80329 19.3392C4.02323 19.9321 4.37172 20.469 4.82371 20.9112C5.2658 21.3631 5.80247 21.7116 6.3952 21.9315C6.87088 22.1168 7.54113 22.3104 8.68421 22.3628C9.83777 22.4153 10.1942 22.426 13.0629 22.426C15.9317 22.426 16.2884 22.4153 17.442 22.3628C18.5865 22.3103 19.2559 22.1156 19.7299 21.9318C20.323 21.7119 20.86 21.3634 21.3022 20.9112C21.7541 20.4691 22.1024 19.9325 22.3224 19.3398C22.5077 18.8641 22.7013 18.1939 22.7537 17.0508C22.8062 15.8972 22.8169 15.5401 22.8169 12.6721C22.8169 9.80402 22.8061 9.4466 22.7536 8.29304C22.7009 7.14257 22.5044 6.4721 22.3198 5.99768C22.0783 5.37436 21.7721 4.90293 21.3014 4.43228C20.8318 3.96349 20.3616 3.65712 19.7378 3.41543C19.2617 3.22928 18.5907 3.03401 17.442 2.98137C17.3421 2.97682 17.2481 2.97259 17.158 2.96865M3.37671 17.1412C3.37512 17.1115 3.37363 17.0815 3.37224 17.0511C3.36769 16.9511 3.36345 16.8571 3.35951 16.7669M8.68437 2.96864C9.80652 2.91744 10.1542 2.90527 13.0629 2.90527C15.9717 2.90527 16.3192 2.91813 17.441 2.96865M8.68437 2.96864L8.96809 2.96864M17.441 2.96865L17.158 2.96865M17.441 2.96865C18.4912 3.01668 19.1685 3.18107 19.7434 3.40343L19.7513 3.40645C20.3363 3.62678 20.8662 3.97194 21.3042 4.41789L21.3102 4.42409L21.3164 4.43017C21.7625 4.86819 22.1076 5.39823 22.3277 5.98334L22.3315 5.99324C22.5545 6.56675 22.7183 7.24263 22.7664 8.2935M8.96809 2.96864L17.158 2.96865M8.96809 2.96864C9.9183 2.92709 10.4435 2.91815 13.0629 2.91815C15.6826 2.91815 16.2077 2.92709 17.158 2.96865M8.96809 2.96864C8.87791 2.97258 8.7839 2.97682 8.68391 2.98137C7.5394 3.03382 6.86994 3.22854 6.39594 3.41238C5.80065 3.63305 5.26189 3.98339 4.81871 4.43802C4.35245 4.90621 4.04725 5.37538 3.80633 5.99715C3.62018 6.47326 3.42487 7.1445 3.37222 8.29334C3.36769 8.39301 3.36346 8.48673 3.35953 8.57664M22.7664 17.0506C22.7183 18.1015 22.5545 18.7777 22.3319 19.3517L22.3286 19.3605C22.1082 19.9454 21.7631 20.4753 21.3171 20.9133L21.3109 20.9194L21.3047 20.9257C20.8664 21.3722 20.3363 21.717 19.7519 21.9368L19.7418 21.9406C19.1683 22.1637 18.4924 22.3275 17.4415 22.3755M3.35951 16.7669C3.31796 15.8167 3.30901 15.2915 3.30901 12.6721C3.30901 10.0518 3.31795 9.52736 3.35953 8.57664M3.35951 16.7669L3.35953 8.57664M11.3259 16.8658C11.8766 17.0939 12.4668 17.2113 13.0629 17.2113C14.2668 17.2113 15.4214 16.7331 16.2727 15.8818C17.124 15.0305 17.6022 13.876 17.6022 12.6721C17.6022 11.4682 17.124 10.3136 16.2727 9.46234C15.4214 8.61106 14.2668 8.13282 13.0629 8.13282C12.4668 8.13282 11.8766 8.25024 11.3259 8.47835C10.7751 8.70647 10.2747 9.04083 9.85321 9.46234C9.43171 9.88385 9.09735 10.3842 8.86923 10.935C8.64111 11.4857 8.5237 12.076 8.5237 12.6721C8.5237 13.2682 8.64111 13.8584 8.86923 14.4092C9.09735 14.9599 9.43171 15.4603 9.85321 15.8818C10.2747 16.3033 10.7751 16.6377 11.3259 16.8658ZM9.8431 9.45222C10.6971 8.59827 11.8553 8.11852 13.0629 8.11852C14.2706 8.11852 15.4288 8.59827 16.2828 9.45222C17.1367 10.3062 17.6165 11.4644 17.6165 12.6721C17.6165 13.8797 17.1367 15.038 16.2828 15.8919C15.4288 16.7459 14.2706 17.2256 13.0629 17.2256C11.8553 17.2256 10.6971 16.7459 9.8431 15.8919C8.98914 15.038 8.5094 13.8797 8.5094 12.6721C8.5094 11.4644 8.98914 10.3062 9.8431 9.45222ZM20.1806 7.05835C20.1806 7.40401 20.0433 7.73551 19.7988 7.97993C19.5544 8.22435 19.2229 8.36166 18.8773 8.36166C18.5316 8.36166 18.2001 8.22435 17.9557 7.97993C17.7113 7.73551 17.5739 7.40401 17.5739 7.05835C17.5739 6.71269 17.7113 6.38119 17.9557 6.13677C18.2001 5.89235 18.5316 5.75504 18.8773 5.75504C19.2229 5.75504 19.5544 5.89235 19.7988 6.13677C20.0433 6.38119 20.1806 6.71269 20.1806 7.05835Z" stroke="#F9F9F9" stroke-width="1.5" stroke-linejoin="round"/>
</svg>
