<svg width="23" height="23" viewBox="0 0 23 23" fill="none" xmlns="http://www.w3.org/2000/svg">
<path d="M22.2273 3.06167V20.588C22.2273 20.9887 22.0681 21.373 21.7848 21.6564C21.5015 21.9397 21.1171 22.0989 20.7164 22.0989H3.19009C2.78938 22.0989 2.40508 21.9397 2.12173 21.6564C1.83838 21.373 1.6792 20.9887 1.6792 20.588V3.06167C1.6792 2.66096 1.83838 2.27666 2.12173 1.99331C2.40508 1.70996 2.78938 1.55078 3.19009 1.55078L20.7164 1.55078C21.1171 1.55078 21.5015 1.70996 21.7848 1.99331C22.0681 2.27666 22.2273 2.66096 22.2273 3.06167ZM7.72277 9.40742H4.70098V19.0771H7.72277V9.40742ZM7.99473 6.08346C7.99632 5.85488 7.95287 5.62823 7.86687 5.41645C7.78087 5.20467 7.65399 5.0119 7.49349 4.84915C7.33299 4.6864 7.142 4.55686 6.93143 4.46793C6.72086 4.37899 6.49484 4.3324 6.26627 4.33082H6.21187C5.74705 4.33082 5.30126 4.51547 4.97257 4.84416C4.64389 5.17284 4.45924 5.61863 4.45924 6.08346C4.45924 6.54828 4.64389 6.99407 4.97257 7.32276C5.30126 7.65144 5.74705 7.83609 6.21187 7.83609C6.44046 7.84171 6.66792 7.80224 6.88125 7.71993C7.09458 7.63762 7.2896 7.51407 7.45516 7.35637C7.62073 7.19866 7.7536 7.00987 7.84618 6.80079C7.93876 6.59171 7.98924 6.36644 7.99473 6.13785V6.08346ZM19.2055 13.2028C19.2055 10.2958 17.3562 9.16568 15.519 9.16568C14.9174 9.13556 14.3185 9.26368 13.7819 9.53727C13.2453 9.81086 12.7899 10.2204 12.4609 10.7249H12.3763V9.40742H9.53584V19.0771H12.5576V13.9341C12.5139 13.4073 12.6799 12.8846 13.0193 12.4795C13.3588 12.0744 13.8444 11.8196 14.3707 11.7705H14.4855C15.4464 11.7705 16.1596 12.3748 16.1596 13.8978V19.0771H19.1814L19.2055 13.2028Z" stroke="#F9F9F9" stroke-width="1.5" stroke-linejoin="round"/>
</svg>
