<svg width="29" height="29" viewBox="0 0 29 29" fill="none" xmlns="http://www.w3.org/2000/svg">
<path d="M25.8784 12.4861C25.9993 13.2211 26.0698 13.9763 26.0698 14.7718C26.0698 18.4472 24.7607 21.5486 22.485 23.6531C20.4913 25.4958 17.7625 26.5833 14.5 26.5833C9.77739 26.5833 5.69926 23.8645 3.71558 19.9173C2.88989 18.2861 2.41663 16.4534 2.41663 14.5C2.41663 12.5465 2.88989 10.7139 3.71558 9.0826C5.69926 5.13538 9.77739 2.41663 14.5 2.41663C17.7625 2.41663 20.4913 3.61489 22.5757 5.56836L19.1319 9.01212C17.8732 7.81385 16.2823 7.19961 14.5 7.19961C11.3482 7.19961 8.67982 9.32427 7.72322 12.1941C7.48156 12.9191 7.34058 13.6944 7.34058 14.5C7.34058 15.3055 7.47149 16.0809 7.72322 16.8059C8.67982 19.6757 11.3482 21.8003 14.5 21.8003C16.1312 21.8003 17.5107 21.3573 18.5982 20.6322C19.867 19.7763 20.7229 18.5177 21.0149 17.0274H14.5V12.4861H25.8784Z" stroke="#CB2031" stroke-width="1.5" stroke-linejoin="round"/>
</svg>
