<svg width="14" height="13" viewBox="0 0 14 13" fill="none" xmlns="http://www.w3.org/2000/svg">
<path d="M1 2.75L1 8.625C1 9.5915 1.7835 10.375 2.75 10.375L9.125 10.375L9.125 2.75C9.125 1.7835 8.3415 1 7.375 1L2.75 1C1.7835 1 1 1.7835 1 2.75Z" stroke="#CB2031"/>
<path d="M9.125 3.46484L9.125 10.375L12.5 10.375C13.0523 10.375 13.5 9.92729 13.5 9.375L13.5 5.97974C13.5 5.59761 13.3905 5.22348 13.1845 4.90163L11.92 2.92579C11.7362 2.63859 11.4187 2.46484 11.0777 2.46484L10.125 2.46484C9.57272 2.46484 9.125 2.91256 9.125 3.46484Z" stroke="#CB2031"/>
<path d="M13.5 5.375H9.125" stroke="#CB2031"/>
<path d="M12.25 11.1562C12.25 10.7248 11.9002 10.375 11.4688 10.375C11.0373 10.375 10.6875 10.7248 10.6875 11.1562C10.6875 11.5877 11.0373 11.9375 11.4688 11.9375C11.9002 11.9375 12.25 11.5877 12.25 11.1562Z" stroke="#CB2031"/>
<path d="M3.8125 11.1562C3.8125 10.7248 3.46272 10.375 3.03125 10.375C2.59978 10.375 2.25 10.7248 2.25 11.1562C2.25 11.5877 2.59978 11.9375 3.03125 11.9375C3.46272 11.9375 3.8125 11.5877 3.8125 11.1562Z" stroke="#CB2031"/>
</svg>
